# MagicaVoxel @ Ephtracy

# group
o 

# material
mtllib alian_1-5.mtl
usemtl palette

# normals
vn -1 0 0
vn 1 0 0
vn 0 0 -1
vn 0 0 1
vn 0 -1 0
vn 0 1 0

# texcoords
vt 0.908203 0.5
vt 0.939453 0.5
vt 0.970703 0.5

# verts
v 0.5 1.2 0
v 0.5 1.2 0.1
v 0.5 1.2 0.2
v 0.5 1.3 0
v 0.5 1.3 0.1
v 0.5 1.3 0.2
v 0.5 1.4 0
v 0.5 1.4 0.1
v 0.5 1.4 0.2
v 1 1.2 0
v 1 1.2 0.1
v 1 1.2 0.2
v 1 1.3 0
v 1 1.3 0.1
v 1 1.3 0.2
v 1 1.4 0
v 1 1.4 0.1
v 1 1.4 0.2
v 0.5 1.2 0
v 0.5 1.3 0
v 0.5 1.4 0
v 0.6 1.3 0
v 0.6 1.4 0
v 0.7 1.2 0
v 0.7 1.3 0
v 0.7 1.4 0
v 0.8 1.2 0
v 0.8 1.3 0
v 0.8 1.4 0
v 0.9 1.2 0
v 0.9 1.3 0
v 0.9 1.4 0
v 1 1.2 0
v 1 1.3 0
v 1 1.4 0
v 0.5 1.2 0.2
v 0.5 1.3 0.2
v 0.5 1.4 0.2
v 0.6 1.2 0.2
v 0.6 1.3 0.2
v 0.6 1.4 0.2
v 0.7 1.3 0.2
v 0.7 1.4 0.2
v 0.8 1.2 0.2
v 0.8 1.3 0.2
v 0.9 1.2 0.2
v 0.9 1.3 0.2
v 0.9 1.4 0.2
v 1 1.2 0.2
v 1 1.3 0.2
v 1 1.4 0.2
v 0.5 1.2 0
v 0.7 1.2 0
v 0.8 1.2 0
v 0.9 1.2 0
v 1 1.2 0
v 0.5 1.2 0.1
v 0.6 1.2 0.1
v 0.7 1.2 0.1
v 0.8 1.2 0.1
v 0.9 1.2 0.1
v 1 1.2 0.1
v 0.5 1.2 0.2
v 0.6 1.2 0.2
v 0.8 1.2 0.2
v 0.9 1.2 0.2
v 1 1.2 0.2
v 0.5 1.4 0
v 0.6 1.4 0
v 0.7 1.4 0
v 0.8 1.4 0
v 0.9 1.4 0
v 1 1.4 0
v 0.5 1.4 0.1
v 0.6 1.4 0.1
v 0.7 1.4 0.1
v 0.8 1.4 0.1
v 0.9 1.4 0.1
v 1 1.4 0.1
v 0.5 1.4 0.2
v 0.6 1.4 0.2
v 0.7 1.4 0.2
v 0.9 1.4 0.2
v 1 1.4 0.2

# faces
f 1/3/1 2/3/1 4/3/1
f 2/1/1 3/1/1 5/1/1
f 4/3/1 2/3/1 5/3/1
f 5/1/1 3/1/1 6/1/1
f 4/1/1 5/1/1 7/1/1
f 5/2/1 6/2/1 8/2/1
f 7/1/1 5/1/1 8/1/1
f 8/2/1 6/2/1 9/2/1
f 13/1/2 11/1/2 10/1/2
f 14/3/2 12/3/2 11/3/2
f 14/1/2 11/1/2 13/1/2
f 15/3/2 12/3/2 14/3/2
f 16/3/2 14/3/2 13/3/2
f 17/2/2 15/2/2 14/2/2
f 17/3/2 14/3/2 16/3/2
f 18/2/2 15/2/2 17/2/2
f 19/3/3 20/3/3 22/3/3
f 20/1/3 21/1/3 22/1/3
f 22/1/3 21/1/3 23/1/3
f 19/3/3 22/3/3 24/3/3
f 22/2/3 23/2/3 25/2/3
f 24/3/3 22/3/3 25/3/3
f 25/2/3 23/2/3 26/2/3
f 24/2/3 25/2/3 27/2/3
f 25/3/3 26/3/3 28/3/3
f 27/2/3 25/2/3 28/2/3
f 28/3/3 26/3/3 29/3/3
f 27/3/3 28/3/3 30/3/3
f 28/1/3 29/1/3 31/1/3
f 30/3/3 28/3/3 31/3/3
f 31/1/3 29/1/3 32/1/3
f 30/1/3 31/1/3 33/1/3
f 31/3/3 32/3/3 34/3/3
f 33/1/3 31/1/3 34/1/3
f 34/3/3 32/3/3 35/3/3
f 39/1/4 37/1/4 36/1/4
f 40/2/4 38/2/4 37/2/4
f 40/1/4 37/1/4 39/1/4
f 41/2/4 38/2/4 40/2/4
f 42/3/4 40/3/4 39/3/4
f 42/1/4 41/1/4 40/1/4
f 43/1/4 41/1/4 42/1/4
f 44/3/4 42/3/4 39/3/4
f 44/3/4 43/3/4 42/3/4
f 45/3/4 43/3/4 44/3/4
f 46/2/4 45/2/4 44/2/4
f 47/3/4 43/3/4 45/3/4
f 47/2/4 45/2/4 46/2/4
f 48/3/4 43/3/4 47/3/4
f 49/3/4 47/3/4 46/3/4
f 50/2/4 48/2/4 47/2/4
f 50/3/4 47/3/4 49/3/4
f 51/2/4 48/2/4 50/2/4
f 52/3/5 53/3/5 57/3/5
f 57/3/5 53/3/5 58/3/5
f 53/2/5 54/2/5 59/2/5
f 58/3/5 53/3/5 59/3/5
f 54/3/5 55/3/5 60/3/5
f 59/2/5 54/2/5 60/2/5
f 55/1/5 56/1/5 61/1/5
f 60/3/5 55/3/5 61/3/5
f 61/1/5 56/1/5 62/1/5
f 57/1/5 58/1/5 63/1/5
f 59/3/5 60/3/5 64/3/5
f 63/1/5 58/1/5 64/1/5
f 58/3/5 59/3/5 64/3/5
f 60/2/5 61/2/5 65/2/5
f 64/3/5 60/3/5 65/3/5
f 61/3/5 62/3/5 66/3/5
f 65/2/5 61/2/5 66/2/5
f 66/3/5 62/3/5 67/3/5
f 74/1/6 69/1/6 68/1/6
f 75/2/6 70/2/6 69/2/6
f 75/1/6 69/1/6 74/1/6
f 76/3/6 71/3/6 70/3/6
f 76/2/6 70/2/6 75/2/6
f 77/1/6 72/1/6 71/1/6
f 77/3/6 71/3/6 76/3/6
f 78/3/6 73/3/6 72/3/6
f 78/1/6 72/1/6 77/1/6
f 79/3/6 73/3/6 78/3/6
f 80/2/6 75/2/6 74/2/6
f 81/1/6 76/1/6 75/1/6
f 81/2/6 75/2/6 80/2/6
f 82/3/6 77/3/6 76/3/6
f 82/1/6 76/1/6 81/1/6
f 82/3/6 78/3/6 77/3/6
f 83/2/6 79/2/6 78/2/6
f 83/3/6 78/3/6 82/3/6
f 84/2/6 79/2/6 83/2/6
