# MagicaVoxel @ Ephtracy

# group
o 

# material
mtllib alian_1-4.mtl
usemtl palette

# normals
vn -1 0 0
vn 1 0 0
vn 0 0 -1
vn 0 0 1
vn 0 -1 0
vn 0 1 0

# texcoords
vt 0.908203 0.5
vt 0.939453 0.5
vt 0.970703 0.5

# verts
v 1 1.2 0
v 1 1.2 0.1
v 1 1.2 0.2
v 1 1.3 0
v 1 1.3 0.1
v 1 1.4 0
v 1 1.4 0.2
v 1.4 1.2 -0.1
v 1.4 1.2 0
v 1.4 1.3 -0.1
v 1.4 1.3 0
v 1.4 1.4 -0.1
v 1.4 1.4 0
v 1.4 1.4 0.1
v 1.4 1.5 0
v 1.4 1.5 0.1
v 1.5 1.4 -0.1
v 1.5 1.4 0
v 1.5 1.5 -0.1
v 1.5 1.5 0
v 1.6 1.2 0.1
v 1.6 1.2 0.2
v 1.6 1.3 0.1
v 1.6 1.4 -0.1
v 1.6 1.4 0
v 1.6 1.4 0.1
v 1.6 1.4 0.2
v 1.6 1.5 -0.1
v 1.6 1.5 0
v 1.6 1.5 0.1
v 1.7 1.2 -0.1
v 1.7 1.2 0
v 1.7 1.2 0.1
v 1.7 1.3 -0.1
v 1.7 1.3 0
v 1.7 1.3 0.1
v 1.7 1.4 -0.1
v 1.7 1.4 0
v 1.7 1.4 0.1
v 1.4 1.2 -0.1
v 1.4 1.3 -0.1
v 1.4 1.4 -0.1
v 1.5 1.3 -0.1
v 1.5 1.4 -0.1
v 1.5 1.5 -0.1
v 1.6 1.2 -0.1
v 1.6 1.3 -0.1
v 1.6 1.4 -0.1
v 1.6 1.5 -0.1
v 1.7 1.2 -0.1
v 1.7 1.3 -0.1
v 1.7 1.4 -0.1
v 1 1.2 0
v 1 1.3 0
v 1 1.4 0
v 1.1 1.2 0
v 1.1 1.3 0
v 1.1 1.4 0
v 1.2 1.3 0
v 1.2 1.4 0
v 1.3 1.2 0
v 1.3 1.3 0
v 1.3 1.4 0
v 1.4 1.2 0
v 1.4 1.3 0
v 1.4 1.4 0
v 1.4 1.5 0
v 1.5 1.4 0
v 1.5 1.5 0
v 1.4 1.4 0.1
v 1.4 1.5 0.1
v 1.5 1.4 0.1
v 1.5 1.5 0.1
v 1.6 1.2 0.1
v 1.6 1.3 0.1
v 1.6 1.4 0.1
v 1.6 1.5 0.1
v 1.7 1.2 0.1
v 1.7 1.3 0.1
v 1.7 1.4 0.1
v 1 1.2 0.2
v 1 1.4 0.2
v 1.2 1.2 0.2
v 1.2 1.3 0.2
v 1.3 1.2 0.2
v 1.3 1.3 0.2
v 1.3 1.4 0.2
v 1.4 1.2 0.2
v 1.4 1.3 0.2
v 1.4 1.4 0.2
v 1.5 1.3 0.2
v 1.5 1.4 0.2
v 1.6 1.2 0.2
v 1.6 1.4 0.2
v 1.4 1.2 -0.1
v 1.6 1.2 -0.1
v 1.7 1.2 -0.1
v 1 1.2 0
v 1.1 1.2 0
v 1.3 1.2 0
v 1.4 1.2 0
v 1.5 1.2 0
v 1.6 1.2 0
v 1.7 1.2 0
v 1 1.2 0.1
v 1.1 1.2 0.1
v 1.2 1.2 0.1
v 1.3 1.2 0.1
v 1.4 1.2 0.1
v 1.5 1.2 0.1
v 1.6 1.2 0.1
v 1.7 1.2 0.1
v 1 1.2 0.2
v 1.2 1.2 0.2
v 1.3 1.2 0.2
v 1.4 1.2 0.2
v 1.6 1.2 0.2
v 1.4 1.4 -0.1
v 1.5 1.4 -0.1
v 1.6 1.4 -0.1
v 1.7 1.4 -0.1
v 1 1.4 0
v 1.1 1.4 0
v 1.2 1.4 0
v 1.3 1.4 0
v 1.4 1.4 0
v 1.5 1.4 0
v 1.6 1.4 0
v 1.7 1.4 0
v 1.1 1.4 0.1
v 1.2 1.4 0.1
v 1.3 1.4 0.1
v 1.4 1.4 0.1
v 1.5 1.4 0.1
v 1.6 1.4 0.1
v 1.7 1.4 0.1
v 1 1.4 0.2
v 1.3 1.4 0.2
v 1.4 1.4 0.2
v 1.5 1.4 0.2
v 1.6 1.4 0.2
v 1.5 1.5 -0.1
v 1.6 1.5 -0.1
v 1.4 1.5 0
v 1.5 1.5 0
v 1.6 1.5 0
v 1.4 1.5 0.1
v 1.5 1.5 0.1
v 1.6 1.5 0.1

# faces
f 1/1/1 2/1/1 4/1/1
f 2/3/1 3/3/1 5/3/1
f 4/1/1 2/1/1 5/1/1
f 4/3/1 5/3/1 6/3/1
f 5/3/1 3/3/1 7/3/1
f 6/3/1 5/3/1 7/3/1
f 8/3/1 9/3/1 10/3/1
f 10/3/1 9/3/1 11/3/1
f 10/2/1 11/2/1 12/2/1
f 12/2/1 11/2/1 13/2/1
f 13/1/1 14/1/1 15/1/1
f 15/1/1 14/1/1 16/1/1
f 17/1/1 18/1/1 19/1/1
f 19/1/1 18/1/1 20/1/1
f 23/1/2 22/1/2 21/1/2
f 26/1/2 22/1/2 23/1/2
f 27/1/2 22/1/2 26/1/2
f 28/1/2 25/1/2 24/1/2
f 29/3/2 26/3/2 25/3/2
f 29/1/2 25/1/2 28/1/2
f 30/3/2 26/3/2 29/3/2
f 34/1/2 32/1/2 31/1/2
f 35/2/2 33/2/2 32/2/2
f 35/1/2 32/1/2 34/1/2
f 36/2/2 33/2/2 35/2/2
f 37/2/2 35/2/2 34/2/2
f 38/3/2 36/3/2 35/3/2
f 38/2/2 35/2/2 37/2/2
f 39/3/2 36/3/2 38/3/2
f 40/3/3 41/3/3 43/3/3
f 41/2/3 42/2/3 43/2/3
f 43/2/3 42/2/3 44/2/3
f 40/3/3 43/3/3 46/3/3
f 43/3/3 44/3/3 46/3/3
f 46/3/3 44/3/3 47/3/3
f 44/1/3 45/1/3 48/1/3
f 47/3/3 44/3/3 48/3/3
f 48/1/3 45/1/3 49/1/3
f 46/1/3 47/1/3 50/1/3
f 47/2/3 48/2/3 51/2/3
f 50/1/3 47/1/3 51/1/3
f 51/2/3 48/2/3 52/2/3
f 53/1/3 54/1/3 56/1/3
f 54/3/3 55/3/3 57/3/3
f 56/1/3 54/1/3 57/1/3
f 57/3/3 55/3/3 58/3/3
f 56/3/3 57/3/3 59/3/3
f 57/2/3 58/2/3 59/2/3
f 59/2/3 58/2/3 60/2/3
f 56/3/3 59/3/3 61/3/3
f 59/1/3 60/1/3 62/1/3
f 61/3/3 59/3/3 62/3/3
f 62/1/3 60/1/3 63/1/3
f 61/2/3 62/2/3 64/2/3
f 62/3/3 63/3/3 65/3/3
f 64/2/3 62/2/3 65/2/3
f 65/3/3 63/3/3 66/3/3
f 66/1/3 67/1/3 68/1/3
f 68/1/3 67/1/3 69/1/3
f 72/1/4 71/1/4 70/1/4
f 73/1/4 71/1/4 72/1/4
f 76/3/4 73/3/4 72/3/4
f 77/3/4 73/3/4 76/3/4
f 78/2/4 75/2/4 74/2/4
f 79/3/4 76/3/4 75/3/4
f 79/2/4 75/2/4 78/2/4
f 80/3/4 76/3/4 79/3/4
f 83/3/4 82/3/4 81/3/4
f 84/3/4 82/3/4 83/3/4
f 85/1/4 84/1/4 83/1/4
f 86/3/4 82/3/4 84/3/4
f 86/1/4 84/1/4 85/1/4
f 87/3/4 82/3/4 86/3/4
f 88/3/4 86/3/4 85/3/4
f 89/1/4 87/1/4 86/1/4
f 89/3/4 86/3/4 88/3/4
f 90/1/4 87/1/4 89/1/4
f 91/1/4 89/1/4 88/1/4
f 91/3/4 90/3/4 89/3/4
f 92/3/4 90/3/4 91/3/4
f 93/1/4 91/1/4 88/1/4
f 93/1/4 92/1/4 91/1/4
f 94/1/4 92/1/4 93/1/4
f 95/3/5 96/3/5 101/3/5
f 101/3/5 96/3/5 102/3/5
f 96/1/5 97/1/5 103/1/5
f 102/3/5 96/3/5 103/3/5
f 103/1/5 97/1/5 104/1/5
f 98/1/5 99/1/5 105/1/5
f 99/3/5 100/3/5 106/3/5
f 105/1/5 99/1/5 106/1/5
f 106/3/5 100/3/5 107/3/5
f 100/2/5 101/2/5 108/2/5
f 107/3/5 100/3/5 108/3/5
f 101/3/5 102/3/5 109/3/5
f 108/2/5 101/2/5 109/2/5
f 102/1/5 103/1/5 110/1/5
f 109/3/5 102/3/5 110/3/5
f 103/2/5 104/2/5 111/2/5
f 110/1/5 103/1/5 111/1/5
f 111/2/5 104/2/5 112/2/5
f 106/3/5 107/3/5 113/3/5
f 105/3/5 106/3/5 113/3/5
f 107/1/5 108/1/5 114/1/5
f 113/3/5 107/3/5 114/3/5
f 108/3/5 109/3/5 115/3/5
f 114/1/5 108/1/5 115/1/5
f 109/1/5 110/1/5 116/1/5
f 115/3/5 109/3/5 116/3/5
f 110/1/5 111/1/5 116/1/5
f 116/1/5 111/1/5 117/1/5
f 126/2/6 119/2/6 118/2/6
f 127/2/6 119/2/6 126/2/6
f 128/2/6 121/2/6 120/2/6
f 129/2/6 121/2/6 128/2/6
f 130/3/6 123/3/6 122/3/6
f 130/2/6 124/2/6 123/2/6
f 131/1/6 125/1/6 124/1/6
f 131/2/6 124/2/6 130/2/6
f 132/3/6 126/3/6 125/3/6
f 132/1/6 125/1/6 131/1/6
f 133/3/6 126/3/6 132/3/6
f 135/3/6 129/3/6 128/3/6
f 136/3/6 129/3/6 135/3/6
f 137/3/6 130/3/6 122/3/6
f 137/3/6 131/3/6 130/3/6
f 137/3/6 132/3/6 131/3/6
f 138/1/6 133/1/6 132/1/6
f 138/3/6 132/3/6 137/3/6
f 139/3/6 134/3/6 133/3/6
f 139/1/6 133/1/6 138/1/6
f 140/1/6 135/1/6 134/1/6
f 140/3/6 134/3/6 139/3/6
f 141/1/6 135/1/6 140/1/6
f 145/1/6 143/1/6 142/1/6
f 146/1/6 143/1/6 145/1/6
f 147/1/6 145/1/6 144/1/6
f 148/3/6 146/3/6 145/3/6
f 148/1/6 145/1/6 147/1/6
f 149/3/6 146/3/6 148/3/6
