# MagicaVoxel @ Ephtracy

# group
o 

# material
mtllib alian_1-2.mtl
usemtl palette

# normals
vn 1 0 0
vn -1 0 0
vn 0 0 -1
vn 0 0 1
vn 0 -1 0
vn 0 1 0

# texcoords
vt 0.908203 0.5
vt 0.939453 0.5
vt 0.970703 0.5

# verts
v 0 0 -0.2
v 0 0 0.2
v 0 0.1 -0.2
v 0 0.1 0
v 0 0.1 0.1
v 0 0.2 0
v 0 0.2 0.1
v 0 0.2 0.2
v 0 0.3 0
v 0 0.3 0.1
v 0 0.4 0
v 0 0.4 0.1
v 0 0.5 0.1
v 0 0.5 0.2
v -0.1 0 0.2
v -0.1 0 0.4
v -0.1 0.1 -0.1
v -0.1 0.1 0
v -0.1 0.1 0.3
v -0.1 0.1 0.4
v -0.1 0.2 -0.1
v -0.1 0.2 0
v -0.1 0.2 0.2
v -0.1 0.3 0.2
v -0.1 0.3 0.3
v -0.1 0.4 0
v -0.1 0.4 0.1
v -0.1 0.4 0.2
v -0.1 0.4 0.3
v -0.1 0.5 0
v -0.1 0.5 0.1
v -0.2 0 -0.2
v -0.2 0 -0.1
v -0.2 0.1 -0.2
v -0.2 0.1 -0.1
v -0.2 0.4 0.2
v -0.2 0.4 0.3
v -0.2 0.5 0.2
v -0.2 0.5 0.3
v -0.3 0 0.2
v -0.3 0 0.3
v -0.3 0.1 0.2
v -0.3 0.1 0.3
v -0.1 0 -0.2
v -0.1 0 -0.1
v -0.1 0.1 -0.2
v -0.1 0.1 -0.1
v -0.2 0 0.2
v -0.2 0 0.4
v -0.2 0.1 0.2
v -0.2 0.1 0.3
v -0.2 0.1 0.4
v -0.2 0.2 0.2
v -0.2 0.3 0.2
v -0.2 0.3 0.3
v -0.2 0.4 0.2
v -0.2 0.4 0.3
v -0.3 0 -0.2
v -0.3 0 -0.1
v -0.3 0.1 -0.2
v -0.3 0.1 -0.1
v -0.3 0.1 0
v -0.3 0.2 -0.1
v -0.3 0.2 0
v -0.3 0.2 0.1
v -0.3 0.3 0
v -0.3 0.3 0.1
v -0.3 0.4 0.1
v -0.3 0.4 0.2
v -0.3 0.4 0.3
v -0.3 0.5 0
v -0.3 0.5 0.1
v -0.3 0.5 0.3
v -0.4 0 -0.1
v -0.4 0 0.3
v -0.4 0.1 -0.1
v -0.4 0.1 0
v -0.4 0.1 0.1
v -0.4 0.1 0.2
v -0.4 0.1 0.3
v -0.4 0.2 0
v -0.4 0.2 0.1
v -0.4 0.2 0.2
v -0.4 0.3 0.1
v -0.4 0.3 0.2
v -0.4 0.4 0.1
v -0.4 0.4 0.2
v 0 0 -0.2
v 0 0.1 -0.2
v -0.1 0 -0.2
v -0.1 0.1 -0.2
v -0.2 0 -0.2
v -0.2 0.1 -0.2
v -0.3 0 -0.2
v -0.3 0.1 -0.2
v -0.1 0 -0.1
v -0.1 0.1 -0.1
v -0.1 0.2 -0.1
v -0.2 0 -0.1
v -0.2 0.1 -0.1
v -0.2 0.2 -0.1
v -0.3 0 -0.1
v -0.3 0.1 -0.1
v -0.3 0.2 -0.1
v -0.4 0 -0.1
v -0.4 0.1 -0.1
v 0 0.1 0
v 0 0.2 0
v 0 0.3 0
v 0 0.4 0
v -0.1 0.1 0
v -0.1 0.2 0
v -0.1 0.3 0
v -0.1 0.4 0
v -0.1 0.5 0
v -0.2 0.2 0
v -0.2 0.3 0
v -0.2 0.4 0
v -0.2 0.5 0
v -0.3 0.1 0
v -0.3 0.2 0
v -0.3 0.3 0
v -0.3 0.5 0
v -0.4 0.1 0
v -0.4 0.2 0
v 0 0.4 0.1
v 0 0.5 0.1
v -0.1 0.4 0.1
v -0.1 0.5 0.1
v -0.3 0.2 0.1
v -0.3 0.3 0.1
v -0.3 0.4 0.1
v -0.4 0.2 0.1
v -0.4 0.3 0.1
v -0.4 0.4 0.1
v 0 0 0.2
v 0 0.2 0.2
v 0 0.5 0.2
v -0.1 0 0.2
v -0.1 0.2 0.2
v -0.1 0.3 0.2
v -0.1 0.4 0.2
v -0.1 0.5 0.2
v -0.2 0 0.2
v -0.2 0.1 0.2
v -0.2 0.2 0.2
v -0.2 0.3 0.2
v -0.2 0.4 0.2
v -0.2 0.5 0.2
v -0.3 0 0.2
v -0.3 0.1 0.2
v -0.3 0.2 0.2
v -0.3 0.3 0.2
v -0.3 0.4 0.2
v -0.4 0.1 0.2
v -0.4 0.2 0.2
v -0.4 0.3 0.2
v -0.4 0.4 0.2
v -0.1 0.1 0.3
v -0.1 0.3 0.3
v -0.1 0.4 0.3
v -0.2 0.1 0.3
v -0.2 0.3 0.3
v -0.2 0.4 0.3
v -0.2 0.5 0.3
v -0.3 0 0.3
v -0.3 0.1 0.3
v -0.3 0.4 0.3
v -0.3 0.5 0.3
v -0.4 0 0.3
v -0.4 0.1 0.3
v -0.1 0 0.4
v -0.1 0.1 0.4
v -0.2 0 0.4
v -0.2 0.1 0.4
v 0 0 -0.2
v -0.1 0 -0.2
v -0.2 0 -0.2
v -0.3 0 -0.2
v -0.1 0 -0.1
v -0.2 0 -0.1
v -0.3 0 -0.1
v -0.4 0 -0.1
v -0.1 0 0
v -0.2 0 0
v -0.2 0 0.1
v -0.3 0 0.1
v 0 0 0.2
v -0.1 0 0.2
v -0.2 0 0.2
v -0.3 0 0.2
v -0.3 0 0.3
v -0.4 0 0.3
v -0.1 0 0.4
v -0.2 0 0.4
v -0.2 0.4 0.2
v -0.3 0.4 0.2
v -0.2 0.4 0.3
v -0.3 0.4 0.3
v 0 0.1 -0.2
v -0.1 0.1 -0.2
v -0.2 0.1 -0.2
v -0.3 0.1 -0.2
v -0.1 0.1 -0.1
v -0.2 0.1 -0.1
v -0.3 0.1 -0.1
v -0.4 0.1 -0.1
v 0 0.1 0
v -0.1 0.1 0
v -0.3 0.1 0
v -0.4 0.1 0
v -0.3 0.1 0.2
v -0.4 0.1 0.2
v -0.1 0.1 0.3
v -0.2 0.1 0.3
v -0.3 0.1 0.3
v -0.4 0.1 0.3
v -0.1 0.1 0.4
v -0.2 0.1 0.4
v -0.1 0.2 -0.1
v -0.2 0.2 -0.1
v -0.3 0.2 -0.1
v -0.1 0.2 0
v -0.2 0.2 0
v -0.3 0.2 0
v -0.4 0.2 0
v -0.3 0.2 0.1
v -0.4 0.2 0.1
v 0 0.4 0
v -0.1 0.4 0
v 0 0.4 0.1
v -0.1 0.4 0.1
v -0.3 0.4 0.1
v -0.4 0.4 0.1
v -0.1 0.4 0.2
v -0.2 0.4 0.2
v -0.3 0.4 0.2
v -0.4 0.4 0.2
v -0.1 0.4 0.3
v -0.2 0.4 0.3
v -0.1 0.5 0
v -0.2 0.5 0
v -0.3 0.5 0
v 0 0.5 0.1
v -0.1 0.5 0.1
v -0.2 0.5 0.1
v -0.3 0.5 0.1
v 0 0.5 0.2
v -0.1 0.5 0.2
v -0.2 0.5 0.2
v -0.2 0.5 0.3
v -0.3 0.5 0.3

# faces
f 3/1/1 2/1/1 1/1/1
f 4/1/1 2/1/1 3/1/1
f 5/1/1 2/1/1 4/1/1
f 6/2/1 5/2/1 4/2/1
f 7/1/1 2/1/1 5/1/1
f 7/2/1 5/2/1 6/2/1
f 8/1/1 2/1/1 7/1/1
f 9/3/1 7/3/1 6/3/1
f 9/3/1 8/3/1 7/3/1
f 10/3/1 8/3/1 9/3/1
f 11/1/1 10/1/1 9/1/1
f 12/3/1 8/3/1 10/3/1
f 12/1/1 10/1/1 11/1/1
f 13/3/1 8/3/1 12/3/1
f 14/3/1 8/3/1 13/3/1
f 19/1/1 16/1/1 15/1/1
f 20/1/1 16/1/1 19/1/1
f 21/3/1 18/3/1 17/3/1
f 22/3/1 18/3/1 21/3/1
f 23/1/1 19/1/1 15/1/1
f 24/1/1 19/1/1 23/1/1
f 25/1/1 19/1/1 24/1/1
f 28/2/1 25/2/1 24/2/1
f 29/2/1 25/2/1 28/2/1
f 30/1/1 27/1/1 26/1/1
f 31/1/1 27/1/1 30/1/1
f 34/1/1 33/1/1 32/1/1
f 35/1/1 33/1/1 34/1/1
f 38/1/1 37/1/1 36/1/1
f 39/1/1 37/1/1 38/1/1
f 42/1/1 41/1/1 40/1/1
f 43/1/1 41/1/1 42/1/1
f 44/1/2 45/1/2 46/1/2
f 46/1/2 45/1/2 47/1/2
f 48/1/2 49/1/2 50/1/2
f 50/1/2 49/1/2 51/1/2
f 51/1/2 49/1/2 52/1/2
f 50/1/2 51/1/2 53/1/2
f 53/1/2 51/1/2 54/1/2
f 54/1/2 51/1/2 55/1/2
f 54/2/2 55/2/2 56/2/2
f 56/2/2 55/2/2 57/2/2
f 58/1/2 59/1/2 60/1/2
f 60/1/2 59/1/2 61/1/2
f 61/1/2 62/1/2 63/1/2
f 63/1/2 62/1/2 64/1/2
f 64/2/2 65/2/2 66/2/2
f 66/2/2 65/2/2 67/2/2
f 66/3/2 67/3/2 68/3/2
f 66/3/2 68/3/2 71/3/2
f 69/1/2 70/1/2 72/1/2
f 71/3/2 68/3/2 72/3/2
f 68/1/2 69/1/2 72/1/2
f 72/1/2 70/1/2 73/1/2
f 74/1/2 75/1/2 76/1/2
f 76/1/2 75/1/2 77/1/2
f 77/1/2 75/1/2 78/1/2
f 78/1/2 75/1/2 79/1/2
f 79/1/2 75/1/2 80/1/2
f 77/3/2 78/3/2 81/3/2
f 78/1/2 79/1/2 82/1/2
f 81/3/2 78/3/2 82/3/2
f 82/1/2 79/1/2 83/1/2
f 82/3/2 83/3/2 84/3/2
f 84/3/2 83/3/2 85/3/2
f 84/1/2 85/1/2 86/1/2
f 86/1/2 85/1/2 87/1/2
f 90/1/3 89/1/3 88/1/3
f 91/1/3 89/1/3 90/1/3
f 94/1/3 93/1/3 92/1/3
f 95/1/3 93/1/3 94/1/3
f 99/1/3 97/1/3 96/1/3
f 100/3/3 98/3/3 97/3/3
f 100/1/3 97/1/3 99/1/3
f 101/3/3 98/3/3 100/3/3
f 103/1/3 101/1/3 100/1/3
f 104/1/3 101/1/3 103/1/3
f 105/1/3 103/1/3 102/1/3
f 106/1/3 103/1/3 105/1/3
f 111/2/3 108/2/3 107/2/3
f 112/3/3 109/3/3 108/3/3
f 112/2/3 108/2/3 111/2/3
f 113/1/3 110/1/3 109/1/3
f 113/3/3 109/3/3 112/3/3
f 114/1/3 110/1/3 113/1/3
f 116/3/3 113/3/3 112/3/3
f 117/2/3 114/2/3 113/2/3
f 117/3/3 113/3/3 116/3/3
f 118/1/3 115/1/3 114/1/3
f 118/2/3 114/2/3 117/2/3
f 119/1/3 115/1/3 118/1/3
f 121/2/3 117/2/3 116/2/3
f 122/3/3 118/3/3 117/3/3
f 122/3/3 119/3/3 118/3/3
f 122/2/3 117/2/3 121/2/3
f 123/3/3 119/3/3 122/3/3
f 124/3/3 121/3/3 120/3/3
f 125/3/3 121/3/3 124/3/3
f 128/3/3 127/3/3 126/3/3
f 129/3/3 127/3/3 128/3/3
f 133/3/3 131/3/3 130/3/3
f 134/1/3 132/1/3 131/1/3
f 134/3/3 131/3/3 133/3/3
f 135/1/3 132/1/3 134/1/3
f 136/1/4 137/1/4 139/1/4
f 137/3/4 138/3/4 140/3/4
f 139/1/4 137/1/4 140/1/4
f 140/3/4 138/3/4 141/3/4
f 141/3/4 138/3/4 142/3/4
f 142/3/4 138/3/4 143/3/4
f 142/1/4 143/1/4 148/1/4
f 148/1/4 143/1/4 149/1/4
f 144/1/4 145/1/4 150/1/4
f 145/3/4 146/3/4 151/3/4
f 150/1/4 145/1/4 151/1/4
f 146/2/4 147/2/4 152/2/4
f 151/3/4 146/3/4 152/3/4
f 147/3/4 148/3/4 153/3/4
f 152/2/4 147/2/4 153/2/4
f 153/3/4 148/3/4 154/3/4
f 151/1/4 152/1/4 155/1/4
f 152/3/4 153/3/4 156/3/4
f 155/1/4 152/1/4 156/1/4
f 153/1/4 154/1/4 157/1/4
f 156/3/4 153/3/4 157/3/4
f 157/1/4 154/1/4 158/1/4
f 159/1/4 160/1/4 162/1/4
f 160/2/4 161/2/4 163/2/4
f 162/1/4 160/1/4 163/1/4
f 163/2/4 161/2/4 164/2/4
f 164/1/4 165/1/4 168/1/4
f 168/1/4 165/1/4 169/1/4
f 166/1/4 167/1/4 170/1/4
f 170/1/4 167/1/4 171/1/4
f 172/1/4 173/1/4 174/1/4
f 174/1/4 173/1/4 175/1/4
f 180/1/5 177/1/5 176/1/5
f 181/1/5 179/1/5 178/1/5
f 182/1/5 179/1/5 181/1/5
f 184/1/5 180/1/5 176/1/5
f 184/1/5 181/1/5 180/1/5
f 185/3/5 182/3/5 181/3/5
f 185/1/5 181/1/5 184/1/5
f 186/3/5 185/3/5 184/3/5
f 186/3/5 182/3/5 185/3/5
f 187/1/5 183/1/5 182/1/5
f 187/3/5 182/3/5 186/3/5
f 188/1/5 184/1/5 176/1/5
f 189/3/5 186/3/5 184/3/5
f 189/1/5 184/1/5 188/1/5
f 190/1/5 187/1/5 186/1/5
f 190/3/5 186/3/5 189/3/5
f 191/1/5 183/1/5 187/1/5
f 191/1/5 187/1/5 190/1/5
f 192/1/5 183/1/5 191/1/5
f 193/1/5 183/1/5 192/1/5
f 194/1/5 190/1/5 189/1/5
f 195/1/5 190/1/5 194/1/5
f 198/1/5 197/1/5 196/1/5
f 199/1/5 197/1/5 198/1/5
f 200/1/6 201/1/6 204/1/6
f 202/1/6 203/1/6 205/1/6
f 205/1/6 203/1/6 206/1/6
f 200/1/6 204/1/6 208/1/6
f 208/1/6 204/1/6 209/1/6
f 206/1/6 207/1/6 210/1/6
f 210/1/6 207/1/6 211/1/6
f 212/1/6 213/1/6 216/1/6
f 216/1/6 213/1/6 217/1/6
f 214/1/6 215/1/6 218/1/6
f 218/1/6 215/1/6 219/1/6
f 220/3/6 221/3/6 223/3/6
f 221/1/6 222/1/6 224/1/6
f 223/3/6 221/3/6 224/3/6
f 224/1/6 222/1/6 225/1/6
f 225/3/6 226/3/6 227/3/6
f 227/3/6 226/3/6 228/3/6
f 229/1/6 230/1/6 231/1/6
f 231/1/6 230/1/6 232/1/6
f 233/1/6 234/1/6 237/1/6
f 237/1/6 234/1/6 238/1/6
f 235/2/6 236/2/6 239/2/6
f 239/2/6 236/2/6 240/2/6
f 241/1/6 242/1/6 245/1/6
f 242/3/6 243/3/6 246/3/6
f 245/1/6 242/1/6 246/1/6
f 246/3/6 243/3/6 247/3/6
f 244/3/6 245/3/6 248/3/6
f 245/1/6 246/1/6 249/1/6
f 248/3/6 245/3/6 249/3/6
f 246/1/6 247/1/6 249/1/6
f 249/1/6 247/1/6 250/1/6
f 250/1/6 247/1/6 251/1/6
f 251/1/6 247/1/6 252/1/6
